<svg width="96" height="96" viewBox="0 0 96 96" fill="none" xmlns="http://www.w3.org/2000/svg">
<path d="M48.0006 95.2C35.3123 95.2 23.3845 90.2592 14.4126 81.2873C5.44078 72.3166 0.5 60.3876 0.5 47.7005C0.5 35.0134 5.44078 23.0844 14.4126 14.1126C23.3845 5.14073 35.3123 0.199951 48.0006 0.199951C60.6888 0.199951 72.6167 5.14073 81.5885 14.1126C90.5604 23.0844 95.5011 35.0123 95.5011 47.7005C95.5011 60.3888 90.5604 72.3166 81.5885 81.2885C72.6167 90.2603 60.6888 95.2011 48.0006 95.2011V95.2ZM48.0006 6.08579C36.8855 6.08579 26.4351 10.4144 18.5748 18.2747C10.7144 26.1339 6.38584 36.5843 6.38584 47.7005C6.38584 58.8167 10.7144 69.266 18.5748 77.1263C26.4351 84.9866 36.8855 89.3152 48.0006 89.3152C59.1156 89.3152 69.566 84.9866 77.4264 77.1263C85.2867 69.266 89.6153 58.8156 89.6153 47.7005C89.6153 36.5855 85.2867 26.1351 77.4264 18.2747C69.566 10.4144 59.1156 6.08579 48.0006 6.08579Z" fill="#FFFF00"/>
</svg>
