<svg width="64" height="64" viewBox="0 0 64 64" fill="none" xmlns="http://www.w3.org/2000/svg">
<g clip-path="url(#clip0_281_2)">
<path d="M62.08 0H1.92C0.859613 0 0 0.859613 0 1.92V62.08C0 63.1404 0.859613 64 1.92 64H62.08C63.1404 64 64 63.1404 64 62.08V1.92C64 0.859613 63.1404 0 62.08 0Z" fill="black"/>
<mask id="mask0_281_2" style="mask-type:alpha" maskUnits="userSpaceOnUse" x="0" y="0" width="64" height="64">
<path d="M31.712 63.424C49.2261 63.424 63.424 49.2261 63.424 31.712C63.424 14.1979 49.2261 0 31.712 0C14.1979 0 0 14.1979 0 31.712C0 49.2261 14.1979 63.424 31.712 63.424Z" fill="#D9D9D9"/>
</mask>
<g mask="url(#mask0_281_2)">
<path d="M31.712 63.424C49.2261 63.424 63.424 49.2261 63.424 31.712C63.424 14.1979 49.2261 0 31.712 0C14.1979 0 0 14.1979 0 31.712C0 49.2261 14.1979 63.424 31.712 63.424Z" fill="black"/>
<g opacity="0.3">
<path d="M62.6709 68.5357V0" stroke="#727272" stroke-width="1.03092" stroke-dasharray="6.19 6.19"/>
<path d="M58.6699 68.5369V0.000976562" stroke="#727272" stroke-width="1.03092" stroke-dasharray="6.19 6.19"/>
<path d="M54.6699 68.5369V0.000976562" stroke="#727272" stroke-width="1.03092" stroke-dasharray="6.19 6.19"/>
<path d="M50.6709 68.5369V0.000976562" stroke="#727272" stroke-width="1.03092" stroke-dasharray="6.19 6.19"/>
<path d="M46.6709 68.5369V0.000976562" stroke="#727272" stroke-width="1.03092" stroke-dasharray="6.19 6.19"/>
<path d="M42.6719 68.5369V0.000976562" stroke="#727272" stroke-width="1.03092" stroke-dasharray="6.19 6.19"/>
<path d="M38.6719 68.5369V0.000976562" stroke="#727272" stroke-width="1.03092" stroke-dasharray="6.19 6.19"/>
<path d="M34.6729 68.5369V0.000976562" stroke="#727272" stroke-width="1.03092" stroke-dasharray="6.19 6.19"/>
<path d="M30.6729 68.5369L30.6729 0.000976562" stroke="#727272" stroke-width="1.03092" stroke-dasharray="6.19 6.19"/>
<path d="M26.6738 68.5369V0.000976562" stroke="#727272" stroke-width="1.03092" stroke-dasharray="6.19 6.19"/>
<path d="M22.6748 68.5369V0.000976562" stroke="#727272" stroke-width="1.03092" stroke-dasharray="6.19 6.19"/>
<path d="M18.6748 68.5369L18.6749 0.000976562" stroke="#727272" stroke-width="1.03092" stroke-dasharray="6.19 6.19"/>
<path d="M14.6748 68.5369V0.000976562" stroke="#727272" stroke-width="1.03092" stroke-dasharray="6.19 6.19"/>
<path d="M10.6758 68.5369V0.000976562" stroke="#727272" stroke-width="1.03092" stroke-dasharray="6.19 6.19"/>
<path d="M6.67578 68.5369L6.67585 0.000976562" stroke="#727272" stroke-width="1.03092" stroke-dasharray="6.19 6.19"/>
<path d="M2.67773 68.5369L2.67783 0.000976562" stroke="#727272" stroke-width="1.03092" stroke-dasharray="6.19 6.19"/>
<path d="M0 61.3877H125.503" stroke="#727272" stroke-width="1.03092" stroke-dasharray="6.19 6.19"/>
<path d="M0 57.209H125.503" stroke="#727272" stroke-width="1.03092" stroke-dasharray="6.19 6.19"/>
<path d="M0 53.0298L125.503 53.0299" stroke="#727272" stroke-width="1.03092" stroke-dasharray="6.19 6.19"/>
<path d="M0 48.8506H125.503" stroke="#727272" stroke-width="1.03092" stroke-dasharray="6.19 6.19"/>
<path d="M0 44.6719H125.503" stroke="#727272" stroke-width="1.03092" stroke-dasharray="6.19 6.19"/>
<path d="M0 40.4927L125.503 40.4928" stroke="#727272" stroke-width="1.03092" stroke-dasharray="6.19 6.19"/>
<path d="M0 36.3135H125.503" stroke="#727272" stroke-width="1.03092" stroke-dasharray="6.19 6.19"/>
<path d="M0 32.1348H125.503" stroke="#727272" stroke-width="1.03092" stroke-dasharray="6.19 6.19"/>
<path d="M0 27.9556L125.503 27.9557" stroke="#727272" stroke-width="1.03092" stroke-dasharray="6.19 6.19"/>
<path d="M0 23.7764H125.503" stroke="#727272" stroke-width="1.03092" stroke-dasharray="6.19 6.19"/>
<path d="M0 19.5977H125.503" stroke="#727272" stroke-width="1.03092" stroke-dasharray="6.19 6.19"/>
<path d="M0 15.4185L125.503 15.4185" stroke="#727272" stroke-width="1.03092" stroke-dasharray="6.19 6.19"/>
<path d="M0 11.2397H125.503" stroke="#727272" stroke-width="1.03092" stroke-dasharray="6.19 6.19"/>
<path d="M0 7.06055H125.503" stroke="#727272" stroke-width="1.03092" stroke-dasharray="6.19 6.19"/>
<path d="M0 2.88184L125.503 2.88203" stroke="#727272" stroke-width="1.03092" stroke-dasharray="6.19 6.19"/>
</g>
<path d="M34.5302 19.9998C37.4261 22.5147 36.6545 26.423 32.4662 27.2755C29.1734 27.9439 26.4522 24.973 27.2619 22.1805C27.5731 21.1043 28.5892 20.1131 29.3481 19.1332C29.4061 19.0575 29.437 18.9677 29.437 18.8754C29.4391 17.8559 29.419 16.8401 29.3766 15.8281C29.2973 13.8655 27.8017 13.8315 27.1444 12.3928C24.7534 7.16184 32.5615 3.95589 35.2256 8.52978C36.3369 10.4348 35.9231 12.2276 33.984 13.908C33.114 14.6612 33.5332 17.3971 33.5681 18.4619C33.585 18.9434 33.9057 19.4561 34.5302 19.9998ZM29.0941 25.698C32.2249 28.2497 36.7275 25.2987 35.178 21.8803C34.4857 20.3567 32.8599 20.1074 32.7806 18.2467C32.7266 16.9581 32.2884 14.3639 33.4411 13.4123C35.5304 11.6904 35.7083 8.88376 33.1458 7.54418C30.4753 6.14794 27.3857 7.94636 27.4048 10.651C27.4143 12.05 28.6114 12.9875 29.5323 13.9051C29.8815 14.2525 30.0742 14.6594 30.1102 15.1257C30.1949 16.2454 30.2361 17.364 30.234 18.4818C30.2276 20.0791 28.6845 20.756 28.1256 22.0049C27.4927 23.4267 27.8155 24.6577 29.0941 25.698Z" fill="white"/>
<path d="M46.3107 11.2429C47.1681 11.764 48.2763 12.6703 49.2416 12.7864C49.9846 12.877 50.7689 12.6024 51.4135 12.6533C54.7 12.9252 56.0844 16.2813 54.03 18.4648C52.4264 20.1726 49.4638 19.7817 47.9461 18.0881C47.6137 17.7181 47.2729 16.8882 46.9236 15.5987C46.9033 15.5188 46.8499 15.4489 46.7743 15.4033L44.323 13.8853C43.8594 13.5983 43.3461 13.4765 42.783 13.5199C42.457 13.5464 42.0717 13.5747 41.6271 13.6049C37.169 13.9023 35.9465 8.26354 40.0236 6.94379C42.2083 6.23858 44.5453 7.3941 45.1581 9.3964C45.4375 10.3112 45.3677 10.668 46.3107 11.2429ZM38.5662 11.2741C39.8045 13.3302 41.1254 12.8516 43.2751 12.8317C44.4373 12.8204 46.025 14.0354 46.9363 14.6415C48.0762 15.3976 47.9143 16.6664 48.4922 17.5416C50.1783 20.0876 54.8714 18.6432 54.103 15.4968C53.8236 14.3526 52.9736 13.654 51.5532 13.401C50.1656 13.1546 49.394 13.8598 47.9397 13.1008C46.9765 12.5986 46.0578 12.0265 45.1835 11.3845C44.8215 11.1183 44.6194 10.7766 44.577 10.3593C44.3865 8.50994 42.8369 7.1477 40.6904 7.54136C38.9694 7.85291 37.623 9.70789 38.5662 11.2741Z" fill="white"/>
<path d="M15.5895 18.3772C13.0556 23.2909 4.78392 18.6123 9.66754 14.2763C11.1758 12.9396 13.1795 14.2197 14.6433 13.2426C15.4456 12.7063 16.232 12.1598 17.0026 11.6028C17.0833 11.5456 17.143 11.4677 17.174 11.379C17.4693 10.5436 17.5519 9.58352 18.0091 8.88681C19.0474 7.30646 21.032 6.68342 22.9404 7.42826C26.3221 8.74518 25.8808 12.999 22.3371 13.9053C21.1908 14.1998 19.9524 13.5767 18.841 14.3244C18.1806 14.77 17.5286 15.2203 16.8851 15.6754C15.7038 16.5137 16.1294 17.3265 15.5895 18.3772ZM10.1216 19.1844C11.8659 20.2247 13.3213 20.05 14.4877 18.6604C15.0529 17.9892 15.1895 17.0461 15.3959 16.2418C15.4869 15.885 15.6944 15.5941 16.0182 15.3695L18.7871 13.4663C19.056 13.2812 19.3597 13.1973 19.6984 13.2142C20.6828 13.2681 21.7433 13.421 22.6419 13.0443C24.4138 12.3023 24.9822 10.4303 23.9216 8.99158C22.6769 7.29795 19.5396 7.47357 18.5934 9.41642C17.9806 10.6795 18.4442 11.4867 16.9867 12.475C15.5864 13.421 14.529 14.5595 12.6048 14.3188C9.41039 13.9195 7.52424 17.6409 10.1216 19.1844Z" fill="white"/>
<path d="M29.0946 25.6983C27.816 24.6579 27.4932 23.427 28.1261 22.0052C28.685 20.7563 30.2282 20.0794 30.2345 18.4821C30.2367 17.3643 30.1954 16.2457 30.1107 15.126C30.0747 14.6597 29.8821 14.2528 29.5328 13.9054C28.612 12.9878 27.4148 12.0503 27.4054 10.6513C27.3863 7.94665 30.4759 6.14822 33.1464 7.54447C35.7088 8.88406 35.531 11.6906 33.4416 13.4126C32.289 14.3642 32.7272 16.9584 32.7812 18.247C32.8605 20.1077 34.4863 20.357 35.1785 21.8806C36.7281 25.299 32.2255 28.25 29.0946 25.6983Z" fill="white"/>
<path d="M43.2756 12.8321C41.1259 12.8519 39.805 13.3305 38.5666 11.2744C37.6235 9.70826 38.9698 7.85322 40.6909 7.54173C42.8374 7.14807 44.3869 8.51031 44.5774 10.3597C44.6198 10.7769 44.822 11.1186 45.184 11.3849C46.0582 12.0268 46.9769 12.5989 47.9401 13.1012C49.3944 13.8601 50.1661 13.1549 51.5536 13.4013C52.9741 13.6544 53.824 14.3529 54.1035 15.4971C54.8718 18.6436 50.1787 20.088 48.4926 17.5419C47.9147 16.6668 48.0766 15.398 46.9367 14.6418C46.0254 14.0357 44.4377 12.8208 43.2756 12.8321Z" fill="white"/>
<path d="M10.1212 19.1843C7.5238 17.6409 9.40994 13.9195 12.6043 14.3188C14.5285 14.5595 15.5859 13.421 16.9863 12.4751C18.4437 11.4867 17.9801 10.6795 18.593 9.41641C19.5392 7.47356 22.6764 7.29801 23.9212 8.99158C24.9817 10.4303 24.4133 12.3024 22.6415 13.0444C21.7429 13.421 20.6823 13.2681 19.698 13.2143C19.3593 13.1973 19.0555 13.2813 18.7866 13.4663L16.0178 15.3695C15.6939 15.5942 15.4864 15.885 15.3954 16.2418C15.189 17.0461 15.0525 17.9892 14.4873 18.6604C13.3209 20.0501 11.8655 20.2247 10.1212 19.1843Z" fill="white"/>
<path d="M38.0644 31.9997C34.3334 29.5924 37.1468 24.2397 41.6557 24.8061C43.0116 24.976 44.0753 25.9701 45.7328 25.432C46.8104 25.0827 47.8815 24.7268 48.9463 24.3643C49.0419 24.3309 49.1252 24.2761 49.1876 24.2057C50.8356 22.3506 51.6739 20.1643 54.8333 20.4361C60.9204 20.9629 60.0377 29.1222 54.103 28.6549C53.1409 28.5785 51.9914 28.0658 50.9245 27.7968C50.8271 27.7728 50.7233 27.7747 50.626 27.8025C49.4765 28.1461 48.3271 28.4869 47.1776 28.8249C45.4852 29.3261 45.4312 30.6799 44.3325 31.6768C42.4612 33.3817 40.3718 33.4893 38.0644 31.9997ZM40.284 32.2375C41.4292 32.466 42.4982 32.1979 43.4911 31.4333C44.5897 30.5893 44.9644 28.9353 46.2917 28.4029C47.1744 28.0498 48.398 27.6618 49.9624 27.2389C51.7374 26.7574 52.9789 28.1055 54.6777 27.9582C57.3926 27.726 58.9453 25.4773 57.9864 23.2428C57.1386 21.2631 54.2427 20.5863 52.328 21.7502C51.3817 22.3252 50.7371 23.3929 50.1783 24.3076C49.9942 24.6116 49.7242 24.8334 49.3686 24.9732C48.0477 25.4886 45.5138 26.4997 44.0912 26.2335C43.0148 26.0295 42.0463 25.4688 41.027 25.4915C36.4482 25.5991 35.7211 31.3284 40.284 32.2375Z" fill="white"/>
<path d="M40.2838 32.2373C35.7208 31.3282 36.448 25.5988 41.0268 25.4912C42.0461 25.4686 43.0146 26.0293 44.091 26.2332C45.5136 26.4994 48.0474 25.4883 49.3684 24.973C49.724 24.8332 49.9939 24.6114 50.1781 24.3074C50.737 23.3926 51.3815 22.3249 52.3278 21.75C54.2425 20.586 57.1384 21.2629 57.9862 23.2425C58.9452 25.4771 57.3925 27.7257 54.6775 27.958C52.9788 28.1052 51.7372 26.7571 49.9622 27.2386C48.3978 27.6615 47.1742 28.0496 46.2915 28.4026C44.9642 28.9351 44.5895 30.589 43.4909 31.433C42.4981 32.1977 41.429 32.4658 40.2838 32.2373Z" fill="white"/>
<path d="M10.3757 29.7875C7.34016 30.6569 4.10769 28.2128 4.48873 25.4119C4.76816 23.3643 6.51776 21.8038 8.87699 21.7414C11.1251 21.6848 12.4969 22.7469 13.4781 24.4688C14.11 25.5818 17.5583 26.1595 18.8698 26.4003C18.9709 26.4187 19.0765 26.4077 19.1714 26.3691C20.3209 25.899 21.5338 25.242 22.769 25.2788C28.8085 25.46 28.8053 33.271 23.0771 33.5315C20.5812 33.6477 19.2349 32.1211 17.8981 30.2633C17.8402 30.1803 17.7546 30.1159 17.6536 30.0792C16.1274 29.5071 14.5492 29.0974 12.9192 28.85C12.8198 28.8352 12.7181 28.8471 12.6271 28.884C11.3718 29.4165 10.6213 29.7176 10.3757 29.7875ZM14.1163 25.8877C12.8398 25.3863 12.4588 23.874 11.4205 23.1433C9.38509 21.7103 6.08908 22.5854 5.39052 24.8567C4.76815 26.8902 6.09227 28.867 8.48647 29.2154C9.69946 29.391 10.941 28.8472 11.9889 28.3686C12.4778 28.1439 12.9891 28.0939 13.5225 28.2185C14.708 28.496 15.8807 28.7887 17.0408 29.0964C19.3492 29.7053 19.2413 31.9059 21.5084 32.5941C27.3224 34.3557 28.7037 25.6838 22.3785 26.0123C21.5498 26.0548 20.7178 26.5815 19.9589 26.859C19.5525 27.0082 19.1312 27.0554 18.6951 27.0007C16.9889 26.7873 15.4627 26.4163 14.1163 25.8877Z" fill="white"/>
<path d="M14.1161 25.888C15.4625 26.4167 16.9887 26.7877 18.6949 27.0011C19.131 27.0558 19.5523 27.0086 19.9587 26.8595C20.7176 26.5819 21.5496 26.0551 22.3783 26.0126C28.7035 25.6841 27.3223 34.3561 21.5083 32.5945C19.2411 31.9063 19.3491 29.7057 17.0406 29.0968C15.8806 28.7891 14.7078 28.4964 13.5224 28.2188C12.9889 28.0942 12.4776 28.1443 11.9887 28.369C10.9408 28.8476 9.69926 29.3914 8.48627 29.2158C6.09209 28.8674 4.76798 26.8906 5.39034 24.8572C6.08891 22.5858 9.38489 21.7107 11.4203 23.1437C12.4586 23.8744 12.8396 25.3868 14.1161 25.888Z" fill="white"/>
<path d="M52.0386 45.7295C49.4126 43.883 50.4669 40.66 53.3628 39.6291C53.4587 39.5963 53.5371 39.5314 53.5819 39.4478C54.0624 38.5246 54.4318 37.5777 54.69 36.6073C54.9441 35.6727 54.6487 35.1884 54.2106 34.384C53.3088 32.7329 54.1725 30.8128 55.7506 30.0056C59.434 28.1194 63.2634 32.0221 60.8153 35.0382C60.2596 35.7236 59.2181 36.1428 58.4116 36.7347C58.3244 36.8013 58.2605 36.8887 58.2274 36.9868L57.2653 39.9492C57.2234 40.0796 57.2137 40.2165 57.2366 40.3504C57.2597 40.4844 57.3149 40.6122 57.3986 40.7252C59.9421 44.1662 55.8681 48.42 52.0386 45.7295ZM53.6105 40.2295C47.5964 43.4921 54.9218 48.5786 57.2748 44.0642C57.986 42.702 56.9096 41.7589 56.6048 40.6034C56.3317 39.5668 57.043 38.1734 57.3732 37.1312C57.7828 35.8313 59.2688 35.5735 60.0532 34.755C61.9742 32.7471 59.9325 29.7196 57.0557 30.2747C55.2489 30.6258 54.3249 32.1382 54.7567 33.693C55.0235 34.6559 55.8491 35.3668 55.5474 36.4402C55.287 37.3691 54.8869 39.5357 53.6105 40.2295Z" fill="white"/>
<path d="M57.2746 44.0644C54.9218 48.5788 47.5963 43.4923 53.6103 40.2297C54.8868 39.5358 55.2869 37.3693 55.5473 36.4403C55.8489 35.367 55.0233 34.6561 54.7566 33.6932C54.3248 32.1384 55.2488 30.626 57.0556 30.2748C59.9324 29.7198 61.9741 32.7473 60.0531 34.7552C59.2688 35.5737 57.7827 35.8314 57.3731 37.1314C57.0428 38.1736 56.3316 39.567 56.6046 40.6035C56.9095 41.759 57.9859 42.7022 57.2746 44.0644Z" fill="white"/>
<path d="M3.8468 36.7405C-0.246185 33.0899 5.49798 28.5359 8.95907 31.6285C10.3435 32.8652 10.5203 34.4011 9.48937 36.2363C9.3094 36.5517 9.28188 36.8774 9.40681 37.2134C9.72643 38.0744 10.0524 38.8655 10.3848 39.5868C10.95 40.8131 11.8931 40.6233 12.779 41.3908C14.0745 42.5161 14.4386 43.7698 13.8713 45.1519C12.3249 48.9214 6.33309 47.7829 6.41244 43.8151C6.43785 42.6256 7.47619 41.8241 6.96495 40.4902C6.66332 39.6972 6.07589 37.6921 5.11377 37.4259C4.629 37.2899 4.20668 37.0614 3.8468 36.7405ZM4.03732 35.956C5.00262 36.8396 6.26957 36.9076 6.84111 38.1537C7.24547 39.0355 7.59158 39.9361 7.87945 40.8556C8.22556 41.9771 7.1142 42.9938 7.19043 44.1295C7.29519 45.7155 8.72092 46.752 10.4419 46.769C12.779 46.7945 14.0904 44.1635 12.8171 42.4868C11.9407 41.3285 10.3086 41.3766 9.6735 39.9464C9.28611 39.0742 8.92841 38.1868 8.60028 37.2843C8.47535 36.9388 8.49231 36.5989 8.6511 36.2647C9.02895 35.4746 9.46396 34.5088 9.29251 33.645C8.94953 31.9288 7.19676 31.065 5.37097 31.4671C3.12919 31.9628 2.5227 34.5683 4.03732 35.956Z" fill="white"/>
<path d="M4.03788 35.9561C2.52325 34.5683 3.12974 31.9628 5.37152 31.4672C7.1973 31.065 8.95007 31.9288 9.29305 33.645C9.4645 34.5088 9.0295 35.4746 8.65164 36.2647C8.49286 36.599 8.4759 36.9388 8.60082 37.2843C8.92895 38.1868 9.28671 39.0742 9.6741 39.9465C10.3091 41.3767 11.9412 41.3286 12.8177 42.4869C14.0909 44.1635 12.7796 46.7945 10.4425 46.7691C8.72146 46.752 7.29574 45.7155 7.19097 44.1295C7.11474 42.9938 8.2261 41.9771 7.87999 40.8556C7.59212 39.9361 7.24601 39.0355 6.84166 38.1538C6.27012 36.9076 5.00317 36.8397 4.03788 35.9561Z" fill="white"/>
<path d="M37.6359 42.6993C32.3617 42.2093 31.6282 35.7039 36.8167 34.5371C40.5254 33.7045 42.9545 36.8538 42.3481 39.8586C42.2676 40.2627 42.3607 40.6328 42.6275 40.9688C43.3282 41.8506 44.0596 42.7144 44.8217 43.5602C45.7742 44.6223 47.3143 44.3645 48.578 44.8941C52.7092 46.6246 51.7629 52.0028 47.2825 52.6711C45.0693 53.0025 43.053 51.8639 42.3131 49.9948C41.948 49.0744 41.9956 48.0264 42.1417 47.0437C42.1805 46.7796 42.108 46.513 41.9385 46.2961C41.3669 45.5654 40.7668 44.8488 40.138 44.1464C39.3061 43.2147 39.1346 42.838 37.6359 42.6993ZM35.4989 41.1813C35.9498 41.5664 36.4864 41.775 37.1088 41.8072C39.6427 41.9402 41.0303 43.8293 42.3163 45.5229C43.3895 46.9389 42.4973 48.3748 43.053 49.7739C44.0024 52.1727 47.5397 52.8213 49.4132 50.9379C51.0357 49.3066 50.7024 46.803 48.5908 45.6815C47.1618 44.9224 45.5012 45.4039 44.3104 44.0813C43.1609 42.8069 41.2748 40.9688 41.5352 39.9153C41.9966 38.0405 41.4653 36.6282 39.9412 35.6785C36.2768 33.3958 31.7393 37.9696 35.4989 41.1813Z" fill="white"/>
<path d="M15.7576 52.6034C12.3186 50.1762 14.0905 45.8205 18.2152 45.2738C19.8886 45.0501 20.9873 43.0336 21.8256 41.8669C22.3241 41.1673 22.2447 40.5527 22.105 39.7909C21.4096 36.0497 25.6995 33.2969 29.3003 35.5427C31.3166 36.803 31.812 39.536 30.3195 41.2976C29.4337 42.3426 27.9286 42.8779 26.4996 43.1356C25.9958 43.2281 25.5968 43.4622 25.3026 43.838C24.623 44.7027 23.9711 45.5731 23.3466 46.4492C22.8068 47.2082 22.9846 47.8029 23.1211 48.6384C23.7307 52.3513 19.1297 54.988 15.7576 52.6034ZM17.758 46.0782C13.5062 47.0751 13.954 52.5467 18.301 52.8186C20.8095 52.9772 22.6765 50.989 22.3654 48.7687C22.1876 47.4999 22.0003 46.9873 22.8099 45.8488C23.8705 44.3591 24.5458 43.466 24.8358 43.1696C25.6836 42.3029 27.4332 42.2916 28.3953 41.8272C31.2182 40.4621 31.0499 36.7322 28.0143 35.673C25.1216 34.6676 22.2765 36.8795 22.9211 39.6323C23.391 41.6374 22.1304 42.8581 20.6094 44.6621C19.7775 45.642 19.025 45.7808 17.758 46.0782Z" fill="white"/>
<path d="M35.4984 41.1813C31.7389 37.9697 36.2764 33.3958 39.9407 35.6785C41.4649 36.6282 41.9962 38.0405 41.5348 39.9153C41.2744 40.9689 43.1605 42.8069 44.3099 44.0814C45.5007 45.404 47.1614 44.9225 48.5903 45.6815C50.7019 46.8031 51.0353 49.3066 49.4127 50.9379C47.5393 52.8212 44.002 52.1727 43.0525 49.7739C42.4969 48.3748 43.3891 46.939 42.3159 45.5229C41.0299 43.8293 39.6422 41.9403 37.1083 41.8072C36.486 41.7751 35.9494 41.5665 35.4984 41.1813Z" fill="white"/>
<path d="M18.3016 52.8184C13.9546 52.5465 13.5069 47.0748 17.7586 46.078C19.0256 45.7806 19.7782 45.6418 20.6101 44.6619C22.1311 42.8578 23.3917 41.6372 22.9217 39.6321C22.2772 36.8793 25.1222 34.6674 28.015 35.6728C31.0505 36.732 31.2189 40.4619 28.396 41.827C27.4338 42.2914 25.6843 42.3027 24.8365 43.1694C24.5464 43.4658 23.8711 44.3589 22.8106 45.8485C22.0009 46.987 22.1882 47.4997 22.3661 48.7685C22.6772 50.9888 20.8102 52.977 18.3016 52.8184Z" fill="white"/>
<path d="M28.5831 57.2024C24.2995 59.2217 20.4447 53.8804 24.4361 51.3853C26.173 50.2977 28.2941 50.7197 29.7706 52.0083C30.1644 52.35 30.6364 52.5143 31.1868 52.5011L34.197 52.4218C34.2962 52.4199 34.3927 52.3902 34.4732 52.3369C35.0385 51.9668 35.5878 51.5816 36.1212 51.1813C40.3635 48.0066 45.2059 54.6139 40.3667 56.8569C38.6118 57.6688 36.9003 57.3638 35.2322 55.9421C34.9337 55.6872 34.577 55.5607 34.1621 55.5626C33.3238 55.5664 32.3934 55.5985 31.371 55.6589C29.9452 55.7438 29.6817 56.6841 28.5831 57.2024ZM24.2106 52.5776C22.3594 54.9424 25.0997 57.817 27.9099 56.7294C29.3038 56.1885 29.5483 55.0528 31.3456 54.9339C32.476 54.8603 33.6138 54.8432 34.7591 54.8829C34.8645 54.8866 34.9653 54.9182 35.048 54.9735C35.6259 55.3511 36.2091 55.7278 36.7976 56.1035C40.046 58.1795 43.4435 53.7359 40.3889 51.7279C38.8393 50.7112 37.1215 51.0681 35.9022 52.2632C34.5939 53.5405 32.4093 53.1157 30.6978 53.2204C30.5943 53.2279 30.4905 53.2082 30.3993 53.1638C29.4245 52.7022 28.6497 51.8809 27.7099 51.6118C26.2153 51.1832 25.0489 51.5051 24.2106 52.5776Z" fill="white"/>
<path d="M27.9095 56.7293C25.0993 57.8169 22.359 54.9423 24.2102 52.5774C25.0486 51.5051 26.215 51.1831 27.7094 51.6117C28.6493 51.8807 29.4241 52.7021 30.399 53.1637C30.4902 53.2081 30.5939 53.2278 30.6974 53.2203C32.4089 53.1155 34.5936 53.5404 35.9018 52.2631C37.1211 51.0679 38.839 50.7111 40.3885 51.7278C43.4432 53.7358 40.0456 58.1794 36.7972 56.1035C36.2087 55.7277 35.6255 55.3511 35.0476 54.9734C34.9649 54.9181 34.8642 54.8865 34.7587 54.8828C33.6134 54.8432 32.4756 54.8601 31.3452 54.9338C29.5479 55.0527 29.3035 56.1884 27.9095 56.7293Z" fill="white"/>
</g>
</g>
<defs>
<clipPath id="clip0_281_2">
<rect width="64" height="64" fill="white"/>
</clipPath>
</defs>
</svg>
